<svg width="22" height="12" viewBox="0 0 22 12" fill="none" xmlns="http://www.w3.org/2000/svg">
<path d="M0.859347 6.85941L19.0591 6.85941L16.0443 9.85966C15.7079 10.1945 15.7066 10.7386 16.0414 11.075C16.3762 11.4114 16.9203 11.4127 17.2567 11.0779L21.7472 6.60916C21.7475 6.60891 21.7477 6.60861 21.7479 6.60835C22.0835 6.27354 22.0845 5.72766 21.748 5.39173C21.7477 5.39147 21.7475 5.39117 21.7472 5.39092L17.2568 0.922172C16.9205 0.587446 16.3763 0.588605 16.0415 0.925093C15.7066 1.2615 15.7079 1.80561 16.0443 2.14042L19.0591 5.14067L0.859347 5.14067C0.384715 5.14067 -2.81029e-05 5.52541 -2.81444e-05 6.00004C-2.81859e-05 6.47467 0.384715 6.85941 0.859347 6.85941Z" fill="white"/>
</svg>
