<svg width="24" height="24" fill="none" xmlns="http://www.w3.org/2000/svg"><path fill-rule="evenodd" clip-rule="evenodd" d="M17.59.618a25.588 25.588 0 0 0-11.182 0l-.397.088A5.737 5.737 0 0 0 1.7 4.903a22.859 22.859 0 0 0 0 11.227 5.753 5.753 0 0 0 4.03 4.127l.545 3.254a.587.587 0 0 0 .69.478.584.584 0 0 0 .276-.138l3.197-2.864c2.399.147 4.807-.045 7.153-.57l.398-.089a5.738 5.738 0 0 0 4.311-4.197 22.862 22.862 0 0 0 0-11.227A5.753 5.753 0 0 0 17.987.707l-.396-.089ZM7.397 4.808a.96.96 0 0 0-.628.124H6.75a4.81 4.81 0 0 0-1.171.965c-.281.325-.433.653-.473.97-.024.187-.007.377.048.557l.02.011c.317.93.729 1.824 1.232 2.666a15.677 15.677 0 0 0 2.376 3.253l.028.04.044.033.027.032.033.028c.98.932 2.073 1.736 3.256 2.391 1.352.738 2.172 1.086 2.665 1.231v.007c.144.045.275.065.407.065.42-.031.817-.202 1.128-.486.38-.337.702-.735.953-1.177v-.008c.235-.445.155-.865-.184-1.15a14.196 14.196 0 0 0-2.201-1.582c-.525-.285-1.057-.113-1.272.175l-.46.582c-.237.288-.665.248-.665.248l-.012.007c-3.196-.817-4.05-4.058-4.05-4.058s-.039-.44.257-.666l.576-.464c.276-.225.468-.758.172-1.283a13.841 13.841 0 0 0-1.576-2.204.875.875 0 0 0-.515-.308l.002.001Zm5.4-1.409a.585.585 0 0 0-.414 1c.11.11.259.172.414.172 1.48 0 2.71.485 3.682 1.413.5.508.89 1.109 1.144 1.768a5.11 5.11 0 0 1 .343 2.07.588.588 0 0 0 .56.61.585.585 0 0 0 .61-.56 6.29 6.29 0 0 0-.422-2.545 6.382 6.382 0 0 0-1.409-2.173l-.012-.012C16.086 3.988 14.558 3.4 12.796 3.4Zm-.04 1.927a.585.585 0 0 0-.414 1.001c.11.11.259.172.414.172h.02c1.067.076 1.844.432 2.389 1.017.558.603.847 1.352.825 2.278a.587.587 0 0 0 .99.438.587.587 0 0 0 .18-.411c.028-1.216-.363-2.265-1.138-3.102v-.002c-.792-.851-1.88-1.302-3.187-1.39l-.02-.002-.059.001Zm-.022 1.964a.585.585 0 0 0-.48.984.584.584 0 0 0 .419.186c.49.026.802.173.998.372.198.199.346.519.372 1.02a.586.586 0 1 0 1.168-.063c-.037-.703-.257-1.324-.708-1.782-.453-.457-1.07-.68-1.77-.717Z" fill="#9747FF"/></svg>